<svg width="36" height="36" viewBox="0 0 36 36" fill="none" xmlns="http://www.w3.org/2000/svg">
<path d="M5.27344 36H30.7266C33.6344 36 36 33.6344 36 30.7266V5.27344C36 2.36563 33.6344 0 30.7266 0H5.27344C2.36563 0 0 2.36563 0 5.27344V30.7266C0 33.6344 2.36563 36 5.27344 36ZM2.10938 5.27344C2.10938 3.52881 3.52881 2.10938 5.27344 2.10938H30.7266C32.4712 2.10938 33.8906 3.52881 33.8906 5.27344V30.7266C33.8906 32.4712 32.4712 33.8906 30.7266 33.8906H5.27344C3.52881 33.8906 2.10938 32.4712 2.10938 30.7266V5.27344Z" fill="#61DCFF"/>
<path d="M18 27.4922C23.2339 27.4922 27.4922 23.2339 27.4922 18C27.4922 12.7661 23.2339 8.50781 18 8.50781C12.7661 8.50781 8.50781 12.7661 8.50781 18C8.50781 23.2339 12.7661 27.4922 18 27.4922ZM18 10.6172C22.071 10.6172 25.3828 13.929 25.3828 18C25.3828 22.071 22.071 25.3828 18 25.3828C13.929 25.3828 10.6172 22.071 10.6172 18C10.6172 13.929 13.929 10.6172 18 10.6172Z" fill="#61DCFF"/>
<path d="M28.5469 10.6172C30.2915 10.6172 31.7109 9.19775 31.7109 7.45312C31.7109 5.7085 30.2915 4.28906 28.5469 4.28906C26.8022 4.28906 25.3828 5.7085 25.3828 7.45312C25.3828 9.19775 26.8022 10.6172 28.5469 10.6172ZM28.5469 6.39844C29.1283 6.39844 29.6016 6.87167 29.6016 7.45312C29.6016 8.03458 29.1283 8.50781 28.5469 8.50781C27.9654 8.50781 27.4922 8.03458 27.4922 7.45312C27.4922 6.87167 27.9654 6.39844 28.5469 6.39844Z" fill="#61DCFF"/>
</svg>
