<svg width="35" height="35" viewBox="0 0 35 35" fill="none" xmlns="http://www.w3.org/2000/svg">
<path d="M10.938 28.916H6.15288V13.4668H10.938V28.916ZM11.4155 8.54465C11.4155 6.99776 10.1604 5.74219 8.61435 5.74219C7.06238 5.74219 5.81055 6.99776 5.81055 8.54465C5.81055 10.0921 7.06238 11.3477 8.61435 11.3477C10.1604 11.3477 11.4155 10.0921 11.4155 8.54465ZM28.8477 20.4165C28.8477 16.2693 27.9715 13.1934 23.1268 13.1934C20.7989 13.1934 19.2362 14.3576 18.5983 15.5683H18.5938V13.4668H13.9453V28.916H18.5938V21.2453C18.5938 19.2365 19.1051 17.2904 21.5952 17.2904C24.0513 17.2904 24.1309 19.5876 24.1309 21.373V28.916H28.8477V20.4165ZM35 30.8984V4.10156C35 1.83983 33.1602 0 30.8984 0H4.10156C1.83983 0 0 1.83983 0 4.10156V30.8984C0 33.1602 1.83983 35 4.10156 35H30.8984C33.1602 35 35 33.1602 35 30.8984ZM30.8984 2.73438C31.6523 2.73438 32.2656 3.34774 32.2656 4.10156V30.8984C32.2656 31.6523 31.6523 32.2656 30.8984 32.2656H4.10156C3.34774 32.2656 2.73438 31.6523 2.73438 30.8984V4.10156C2.73438 3.34774 3.34774 2.73438 4.10156 2.73438H30.8984Z" fill="#61DCFF"/>
</svg>
