<svg width="176" height="198" viewBox="0 0 176 198" fill="none" xmlns="http://www.w3.org/2000/svg">
<path d="M95.9851 123.636C95.0389 123.636 94.0927 123.904 93.3042 124.44C92.5683 124.923 91.9901 125.567 91.4644 126.318V124.011H89.7823V137.421H91.4644V131.735C91.4119 130.448 91.5696 129.214 91.9375 127.981C92.2529 127.176 92.7786 126.532 93.4619 126.05C94.0927 125.567 94.8812 125.352 95.6697 125.352C96.3005 125.352 96.9312 125.513 97.4043 125.889C97.8774 126.211 98.2454 126.693 98.4556 127.283C98.7185 128.356 98.8236 129.483 98.771 130.609V137.475H100.453V132.218C100.453 130.287 100.611 128.946 100.926 128.088C101.242 127.283 101.715 126.586 102.398 126.103C103.029 125.621 103.817 125.352 104.658 125.352C105.289 125.352 105.867 125.513 106.393 125.835C106.866 126.157 107.234 126.586 107.444 127.122C107.707 128.088 107.812 129.107 107.76 130.073V137.421H109.494V130.073C109.547 128.785 109.389 127.498 108.969 126.318C108.653 125.513 108.128 124.816 107.444 124.333C106.708 123.85 105.867 123.636 105.026 123.636C104.08 123.636 103.134 123.904 102.293 124.44C101.399 125.03 100.663 125.889 100.19 126.854C99.98 126.211 99.6647 125.567 99.2441 125.03C98.8762 124.601 98.3505 124.226 97.8249 124.011C97.2466 123.743 96.6158 123.636 95.9851 123.636ZM55.4045 130.663C55.3519 132.54 56.0878 134.364 57.402 135.705C59.3995 137.797 62.5008 138.387 65.0765 137.099C66.0227 136.617 66.8112 135.919 67.442 135.115V137.421H69.1241V124.011H67.442V126.479C66.8638 125.621 66.0753 124.87 65.1291 124.387C64.2355 123.904 63.2367 123.689 62.1854 123.689C60.3982 123.689 58.611 124.387 57.402 125.728C56.1404 126.962 55.4045 128.785 55.4045 130.663ZM62.3431 125.299C63.7624 125.245 65.0765 125.835 66.0227 126.854C67.0215 127.873 67.5471 129.322 67.5471 130.77C67.5471 131.735 67.3369 132.701 66.8638 133.506C66.3907 134.31 65.7599 135.007 64.9714 135.437C64.1829 135.919 63.2367 136.134 62.3431 136.134C61.4495 136.134 60.5559 135.866 59.7674 135.437C58.9789 134.954 58.2956 134.257 57.8751 133.398C56.9289 131.735 56.9289 129.643 57.8751 127.981C58.7687 126.318 60.5033 125.299 62.3431 125.299ZM10.7763 134.149L3.5223 119.237H3.20691L0.683765 137.368H2.41843L4.15309 124.28L10.5135 137.368H10.9866L17.2945 124.387L19.0291 137.368H20.7638L18.1881 119.237H17.9253L10.7763 134.149ZM37.0591 137.421V124.011H35.377V126.479C34.7988 125.621 34.0103 124.87 33.0641 124.387C32.1705 123.904 31.1718 123.689 30.1205 123.689C28.3332 123.689 26.546 124.387 25.337 125.728C24.0229 127.015 23.2869 128.839 23.3395 130.663C23.2869 132.54 24.0229 134.364 25.337 135.705C27.3345 137.797 30.4359 138.387 33.0116 137.099C33.9577 136.617 34.7462 135.919 35.377 135.115V137.421H37.0591ZM34.7988 133.506C34.3257 134.31 33.6949 135.007 32.9064 135.437C32.118 135.919 31.1718 136.134 30.2782 136.134C29.3845 136.134 28.4909 135.866 27.7024 135.437C26.914 134.954 26.2306 134.257 25.8101 133.398C24.8639 131.735 24.8639 129.643 25.8101 127.981C26.7037 126.318 28.4384 125.245 30.3307 125.299C31.75 125.245 33.0641 125.835 34.0103 126.854C35.0091 127.873 35.5347 129.322 35.5347 130.77C35.4821 131.735 35.2719 132.647 34.7988 133.506ZM50.7261 137.368H52.4082V130.448C52.4608 129.107 52.3031 127.712 51.8826 126.425C51.5146 125.567 50.9364 124.87 50.2005 124.387C49.412 123.85 48.5184 123.582 47.5722 123.636C46.626 123.636 45.7324 123.85 44.8914 124.333C43.9978 124.87 43.2618 125.567 42.6311 126.425V124.011H40.949V137.421H42.6311V132.486C42.5785 131.253 42.6836 130.019 42.8939 128.839C43.1567 127.82 43.6824 126.908 44.4708 126.264C45.2593 125.567 46.2055 125.245 47.2043 125.245C47.9927 125.191 48.7287 125.46 49.3594 125.942C49.9377 126.479 50.3582 127.176 50.4633 127.927C50.621 128.946 50.6736 129.965 50.6736 131.038V137.368H50.7261ZM129.101 123.958V137.368H130.783V132.486C130.731 131.253 130.836 130.019 131.046 128.839C131.309 127.82 131.835 126.908 132.623 126.264C133.412 125.567 134.358 125.245 135.357 125.245C136.145 125.191 136.881 125.46 137.512 125.942C138.09 126.479 138.511 127.176 138.616 127.927C138.773 128.946 138.826 129.965 138.826 131.038V137.421H140.508V130.502C140.561 129.161 140.403 127.766 139.982 126.479C139.614 125.621 139.036 124.923 138.3 124.44C137.512 123.904 136.618 123.636 135.672 123.689C134.726 123.689 133.832 123.904 132.991 124.387C132.098 124.923 131.362 125.621 130.731 126.479V124.065H129.101V123.958ZM145.134 118.969V123.958H142.821V125.46H145.134V137.368H146.816V125.46H149.497V123.958H146.816V118.969H145.134ZM124.581 126.211C123.319 124.494 121.322 123.529 119.219 123.582C117.169 123.529 115.224 124.44 114.015 126.103C113.016 127.391 112.438 129 112.491 130.663C112.491 132.433 113.121 134.203 114.33 135.544C115.539 136.992 117.222 137.689 119.377 137.689C120.27 137.689 121.164 137.529 122.005 137.26C122.793 136.938 123.477 136.509 124.055 135.919C124.738 135.276 125.264 134.525 125.685 133.666L124.265 132.916C123.897 133.613 123.372 134.257 122.846 134.847C122.373 135.276 121.795 135.598 121.217 135.812C120.586 136.027 119.902 136.188 119.272 136.188C117.957 136.241 116.696 135.651 115.75 134.686C114.804 133.666 114.278 132.272 114.278 130.877H126.105C126.053 129.161 125.527 127.552 124.581 126.211ZM114.33 129.322C114.593 128.249 115.119 127.283 115.855 126.532C116.748 125.674 117.957 125.245 119.166 125.245C119.955 125.245 120.691 125.406 121.427 125.728C122.11 126.05 122.688 126.479 123.161 127.069C123.635 127.712 124.002 128.463 124.16 129.268H114.33V129.322ZM82.1078 140.425C81.2141 140.908 80.2154 141.122 79.1641 141.069C78.1654 141.122 77.114 140.908 76.2204 140.425C75.3794 139.996 74.7486 139.299 74.2755 138.44H72.4357C72.8037 139.352 73.3293 140.157 74.0127 140.854C74.6435 141.444 75.3794 141.873 76.2204 142.142C77.2192 142.463 78.2179 142.624 79.2692 142.624C80.6359 142.678 82.0026 142.302 83.2116 141.605C84.263 140.961 85.104 139.942 85.5245 138.762C85.8925 137.421 86.0502 136.027 85.9976 134.632V123.958H84.3155V126.264C83.6322 125.406 82.7911 124.709 81.8449 124.226C81.0039 123.797 80.0577 123.582 79.1115 123.582C75.3268 123.582 72.3306 126.693 72.3306 130.555C72.3306 131.735 72.646 132.916 73.2242 133.988C73.8024 135.007 74.6435 135.866 75.6948 136.456C77.6397 137.582 80.0051 137.689 82.0552 136.724C82.9488 136.295 83.7899 135.651 84.3681 134.847V135.544C84.4207 136.617 84.263 137.743 83.8424 138.762C83.4219 139.46 82.7911 140.05 82.1078 140.425ZM82.9488 134.31C80.7936 136.241 77.5871 136.241 75.4319 134.31C74.4858 133.345 73.9601 132.004 73.9601 130.663C73.9601 129.697 74.1704 128.785 74.6435 127.981C75.1166 127.176 75.7473 126.479 76.5884 125.996C77.4294 125.513 78.3231 125.299 79.2692 125.299C80.1628 125.299 81.0565 125.513 81.8449 125.996C82.6334 126.425 83.2642 127.069 83.6847 127.873C84.1053 128.678 84.3681 129.643 84.3155 130.555C84.4206 131.95 83.9476 133.345 82.9488 134.31ZM63.3944 94.5631H61.0816V96.065H63.3944V107.973H65.0765V96.065H67.7574V94.5631H65.0765V89.5746H63.3944V94.5631ZM35.4821 96.816C34.2206 95.0995 32.2231 94.134 30.1205 94.1876C28.0704 94.134 26.1255 95.0459 24.9165 96.7087C23.9177 97.9961 23.3395 99.6053 23.3921 101.268C23.3921 103.038 24.0229 104.808 25.2319 106.149C26.4409 107.598 28.123 108.295 30.2782 108.295C31.1718 108.295 32.0654 108.134 32.9064 107.866C33.6949 107.544 34.3783 107.115 34.9565 106.525C35.6398 105.881 36.1655 105.13 36.586 104.272L35.1667 103.521C34.7988 104.218 34.2731 104.862 33.7475 105.452C33.2744 105.881 32.6962 106.203 32.1179 106.417C31.4872 106.632 30.8038 106.793 30.173 106.793C28.8589 106.847 27.5973 106.257 26.6511 105.291C25.705 104.272 25.1793 102.877 25.1793 101.483H36.9014C36.954 99.7662 36.4283 98.157 35.4821 96.816ZM25.2319 99.9271C25.4947 98.8543 26.0203 97.8888 26.7563 97.1378C27.6499 96.2796 28.8589 95.8505 30.0679 95.8505C30.8564 95.8505 31.5923 96.0114 32.3282 96.3332C33.0116 96.6551 33.5898 97.0842 34.0629 97.6742C34.536 98.3179 34.9039 99.0688 35.0616 99.8734H25.2319V99.9271ZM5.62492 107.973H5.94032L11.302 94.2413L16.5586 107.973H16.9265L22.0254 89.8428H20.2381L16.5586 102.931L11.5123 89.8428H11.1443L6.04545 102.931L2.41843 89.8428H0.578634L5.62492 107.973ZM56.8237 107.973H58.5058V89.3601H56.8237V107.973ZM79.4795 94.9922C78.691 94.4558 77.7974 94.1876 76.8512 94.2413C75.905 94.2413 75.0114 94.4558 74.1704 94.9386C73.2768 95.475 72.4883 96.1723 71.9101 97.0305V89.4673H70.228V108.08H71.9101V103.145C71.8575 101.912 71.9626 100.678 72.1729 99.498C72.4357 98.4788 72.9614 97.5669 73.7499 96.9233C74.5383 96.2259 75.4845 95.9041 76.4833 95.9041C77.2717 95.8505 78.0077 96.1187 78.6384 96.6014C79.2167 97.1378 79.6372 97.8351 79.7949 98.5861C79.9526 99.6053 80.0051 100.624 79.9526 101.697V108.08H81.6347V101.161C81.6872 99.7662 81.5295 98.4252 81.109 97.1378C80.7936 96.1723 80.2154 95.475 79.4795 94.9922ZM49.0966 94.9386C48.203 94.4558 47.2043 94.2413 46.1529 94.2413C44.3657 94.2413 42.5785 94.9386 41.3695 96.2796C40.0553 97.5669 39.3194 99.3907 39.372 101.214C39.3194 103.092 40.0553 104.916 41.3695 106.257C43.367 108.349 46.4683 108.939 49.044 107.651C49.9902 107.168 50.7787 106.471 51.4095 105.667V107.973H53.0916V94.5631H51.4095V97.0305C50.8313 96.1723 50.0428 95.4213 49.0966 94.9386ZM51.5146 101.322C51.5146 102.287 51.3044 103.253 50.8313 104.057C50.3582 104.862 49.7274 105.559 48.9389 105.988C48.1504 106.471 47.2043 106.686 46.3106 106.686C45.417 106.686 44.5234 106.417 43.7349 105.988C42.9464 105.506 42.2631 104.808 41.8426 103.95C40.8964 102.287 40.8964 100.195 41.8426 98.5325C42.7362 96.8696 44.4708 95.7968 46.3632 95.8505C47.7825 95.7968 49.0966 96.3869 50.0428 97.406C51.0415 98.4788 51.5672 99.8734 51.5146 101.322ZM61.7123 64.4176H60.0302V77.8275H61.7123V64.4176ZM93.7773 66.6705C92.5157 64.954 90.5182 63.9885 88.4156 64.0421C86.3656 63.9885 84.4207 64.9004 83.2116 66.5632C82.2129 67.8505 81.6347 69.4597 81.6872 71.1226C81.6872 72.8927 82.318 74.6628 83.527 76.0038C84.736 77.452 86.4181 78.1494 88.5733 78.1494C89.4669 78.1494 90.3606 77.9884 91.2016 77.7202C91.9901 77.3984 92.6734 76.9693 93.2517 76.3792C93.935 75.7356 94.4607 74.9846 94.8812 74.1264L93.4619 73.3754C93.094 74.0727 92.5683 74.7164 92.0426 75.3064C91.5696 75.7356 90.9913 76.0574 90.4131 76.272C89.7823 76.4865 89.099 76.6474 88.4682 76.6474C87.1541 76.7011 85.8925 76.1111 84.9463 75.1455C84.0001 74.1264 83.4745 72.7317 83.4745 71.3371H95.2491C95.2491 69.6206 94.7761 68.0115 93.7773 66.6705ZM83.5796 69.7816C83.8424 68.7088 84.3681 67.7432 85.104 66.9923C85.9976 66.1341 87.2066 65.7049 88.4156 65.7049C89.2041 65.7049 89.94 65.8659 90.6759 66.1877C91.3593 66.5095 91.9375 66.9387 92.4106 67.5287C92.8837 68.1724 93.2517 68.9233 93.4094 69.7279H83.5796V69.7816ZM6.36084 62.0574C7.56985 61.3601 8.93655 60.9846 10.3033 61.0383C11.5123 61.0383 12.7738 61.3065 13.8777 61.8429C14.9816 62.3793 15.9278 63.1839 16.6637 64.203L18.083 63.1302C17.2419 61.9502 16.0855 60.931 14.7713 60.2873C13.3521 59.59 11.8277 59.2682 10.2507 59.2682C7.67498 59.2145 5.2044 60.18 3.36461 62.0038C1.57738 63.7203 0.578634 66.1877 0.631199 68.7088C0.578634 71.0689 1.36712 73.3754 2.89152 75.1992C4.67874 77.2911 7.14932 78.3639 10.2507 78.3639C11.7751 78.3639 13.2995 78.0421 14.7188 77.3984C16.0329 76.8084 17.1368 75.8965 18.0304 74.7164L16.6111 73.6436C15.0867 75.5747 12.7738 76.6474 10.3558 76.6474C8.2532 76.7011 6.25571 75.8965 4.73131 74.4482C3.25948 72.9999 2.47099 71.0153 2.52356 68.9233C2.52356 67.5287 2.83895 66.1877 3.5223 64.954C4.20566 63.7203 5.2044 62.7548 6.36084 62.0574ZM37.2168 64.4176V77.8275H38.8989V72.9463C38.8463 71.7126 38.9515 70.4789 39.1617 69.2988C39.4246 68.2796 39.9502 67.3678 40.7387 66.7241C41.5272 66.0268 42.4734 65.7049 43.4721 65.7049C44.2606 65.6513 44.9965 65.9195 45.6273 66.4023C46.2055 66.9387 46.626 67.636 46.7312 68.3869C46.8889 69.4061 46.9414 70.4252 46.9414 71.498V77.8812H48.6235V70.9616C48.6761 69.6206 48.5184 68.226 48.0979 66.9387C47.7299 66.0804 47.1517 65.3831 46.4158 64.9004C45.6273 64.364 44.7337 64.0958 43.7875 64.1494C42.8413 64.1494 41.9477 64.3639 41.1067 64.8467C40.213 65.3831 39.4771 66.0804 38.8463 66.9387V64.5249H37.2168V64.4176ZM27.1768 64.0957C25.2319 64.0421 23.3921 64.9003 22.1305 66.3486C19.6599 69.1379 19.7125 73.3754 22.2356 76.111C23.4972 77.5057 25.337 78.2566 27.1768 78.203C29.0691 78.2566 30.8564 77.5057 32.1179 76.111C34.6411 73.3754 34.6937 69.1379 32.2231 66.3486C30.9615 64.8467 29.1217 64.0421 27.1768 64.0957ZM31.6449 73.9118C31.2243 74.7164 30.541 75.4137 29.7525 75.8428C28.123 76.7547 26.178 76.7547 24.6011 75.8428C23.8126 75.3601 23.1818 74.7164 22.7087 73.9118C22.2356 73.1072 22.0254 72.1417 22.0254 71.1762C22.0254 69.7279 22.551 68.3333 23.5498 67.3141C25.4421 65.2758 28.5961 65.1685 30.5935 67.0996C30.6461 67.1532 30.6987 67.2069 30.8038 67.3141C31.8026 68.3333 32.3282 69.7279 32.3282 71.1762C32.3282 72.1417 32.0654 73.1072 31.6449 73.9118ZM98.3505 64.4176V77.8275H100.033V72.9463C99.98 71.7126 100.085 70.4789 100.295 69.2988C100.558 68.2796 101.084 67.3678 101.872 66.7241C102.661 66.0268 103.607 65.7049 104.606 65.7049C105.394 65.6513 106.13 65.9195 106.761 66.4023C107.339 66.9387 107.76 67.636 107.865 68.3869C108.023 69.4061 108.075 70.4252 108.075 71.498V77.8812H109.757V70.9616C109.81 69.6206 109.652 68.226 109.232 66.9387C108.864 66.0804 108.285 65.3831 107.549 64.9004C106.761 64.364 105.867 64.0958 104.921 64.1494C103.975 64.1494 103.081 64.3639 102.24 64.8467C101.347 65.3831 100.611 66.0804 99.98 66.9387V64.5249H98.3505V64.4176ZM51.1467 64.4176V65.9195H52.8813V77.8275H54.5634V65.9195H57.2968V64.4176H54.5634V62.5938C54.5634 62.1111 54.5634 61.6283 54.6686 61.1992C54.7211 60.9846 54.8788 60.8237 55.0891 60.7164C55.3519 60.5555 55.6147 60.5019 55.9301 60.5019C56.5084 60.5019 57.034 60.6628 57.5071 60.931V59.2145C56.8763 59 56.193 58.8927 55.5622 58.8927C55.0365 58.8927 54.5109 59 54.0378 59.2682C53.6698 59.4827 53.3544 59.8582 53.1442 60.2873C52.9339 60.931 52.8288 61.6283 52.8813 62.3256V64.4176H51.1467ZM60.8713 61.7356C61.6598 61.7356 62.238 61.0919 62.238 60.341C62.238 59.5364 61.6072 58.8927 60.8187 58.8927C60.4508 58.8927 60.0828 59.0536 59.82 59.3218C59.5572 59.59 59.3995 59.9655 59.3995 60.341C59.5046 61.0919 60.1354 61.7356 60.8713 61.7356ZM76.7986 66.885C76.2204 66.0268 75.4319 65.2758 74.4858 64.7931C73.5921 64.3103 72.5934 64.0957 71.5421 64.0957C69.7549 64.0957 67.9676 64.7931 66.7586 66.1341C65.4445 67.4214 64.7086 69.2452 64.7611 71.0689C64.7086 72.9463 65.4445 74.7701 66.7586 76.111C68.7561 78.203 71.8575 78.793 74.4332 77.5057C75.3794 77.0229 76.1679 76.3256 76.7986 75.521V77.8275H78.4808V59.2145H76.7986V66.885ZM76.2204 73.9655C75.7473 74.7701 75.1165 75.4674 74.3281 75.8965C73.5396 76.3792 72.5934 76.5938 71.6998 76.5938C70.8062 76.5938 69.9126 76.3256 69.1241 75.8965C68.3356 75.4137 67.6522 74.7164 67.2317 73.8582C66.2855 72.1953 66.2855 70.1034 67.2317 68.4406C68.1253 66.7777 69.86 65.7049 71.7524 65.7586C73.1716 65.7049 74.4858 66.295 75.4319 67.3141C76.4307 68.3333 76.9563 69.7816 76.9563 71.2298C76.9038 72.1954 76.641 73.1072 76.2204 73.9655ZM114.383 59.4291V64.4176H112.07V65.9195H114.383V77.8275H116.065V65.9195H118.746V64.4176H116.065V59.4291H114.383ZM175.622 1.92731V0.318115H0.841461H0.0529785V32.1801H1.62994V1.92731H174.045V195.567H1.62994V167.889H0.0529785V196.854V197.176H175.622V195.567V1.92731Z" fill="white"/>
</svg>
